<svg width="350" height="350" fill="none" xmlns="http://www.w3.org/2000/svg"><rect width="350" height="350" rx="60" fill="url(#a)"/><circle cx="130.621" cy="144.132" r="73.108" fill="url(#b)" stroke="url(#c)" stroke-width="2"/><mask id="e" style="mask-type:alpha" maskUnits="userSpaceOnUse" x="56" y="111" width="149" height="108"><path d="M204.729 144.133c0 40.928-33.18 74.108-74.108 74.108-40.93 0-74.109-33.18-74.109-74.108 0-40.929 27.527-31.402 68.456-31.402s79.761-9.527 79.761 31.402Z" fill="url(#d)"/></mask><g filter="url(#f)" mask="url(#e)"><path fill-rule="evenodd" clip-rule="evenodd" d="M243.667 279.788c0 29.83-24.182 54.011-54.011 54.011-.21 0-.419-.001-.628-.003v.003H-.639l.002-.003c-.21.003-.42.004-.63.004-29.83 0-54.011-24.182-54.011-54.011 0-29.83 24.181-54.011 54.01-54.011 25.713 0 47.229 17.966 52.678 42.03l18.291-23.19 57.151-18.841h62.176v.004c.209-.003.418-.004.628-.004 29.829 0 54.011 24.182 54.011 54.011Z" fill="#E18700"/></g><mask id="i" fill="#fff"><path fill-rule="evenodd" clip-rule="evenodd" d="M255.678 283.997c.151.002.303.003.454.003 21.558 0 39.034-17.476 39.034-39.033 0-21.558-17.476-39.034-39.034-39.034-.151 0-.303.001-.454.003v-.003h-10.084c.365-2.671.553-5.398.553-8.17 0-33.088-26.823-59.911-59.912-59.911-33.088 0-59.911 26.823-59.911 59.911 0 3.122.239 6.189.699 9.182a39.147 39.147 0 0 0-8.869-1.012c-21.557 0-39.033 17.476-39.033 39.034 0 21.557 17.476 39.033 39.033 39.033l.456-.003-.002.003h137.07v-.003Z"/></mask><path fill-rule="evenodd" clip-rule="evenodd" d="M255.678 283.997c.151.002.303.003.454.003 21.558 0 39.034-17.476 39.034-39.033 0-21.558-17.476-39.034-39.034-39.034-.151 0-.303.001-.454.003v-.003h-10.084c.365-2.671.553-5.398.553-8.17 0-33.088-26.823-59.911-59.912-59.911-33.088 0-59.911 26.823-59.911 59.911 0 3.122.239 6.189.699 9.182a39.147 39.147 0 0 0-8.869-1.012c-21.557 0-39.033 17.476-39.033 39.034 0 21.557 17.476 39.033 39.033 39.033l.456-.003-.002.003h137.07v-.003Z" fill="url(#g)"/><path d="m255.678 283.997.022-1.999a1.995 1.995 0 0 0-2.022 1.999h2Zm0-78.061h-2a1.998 1.998 0 0 0 2.022 2l-.022-2Zm0-.003h2a2 2 0 0 0-2-2v2Zm-10.084 0-1.981-.27a2 2 0 0 0 1.981 2.27v-2Zm-118.571 1.012-.452 1.949a2.002 2.002 0 0 0 2.429-2.253l-1.977.304Zm-8.413 77.052 1.569 1.24a2 2 0 0 0-1.592-3.239l.023 1.999Zm-.003.003-1.569-1.24a2 2 0 0 0 1.569 3.24v-2Zm137.071 0v2a2 2 0 0 0 2-2h-2Zm-.023 1.997.477.003v-4l-.432-.002-.045 3.999Zm.477.003c22.662 0 41.034-18.371 41.034-41.033h-4c0 20.453-16.581 37.033-37.034 37.033v4Zm41.034-41.033c0-22.662-18.372-41.034-41.034-41.034v4c20.453 0 37.034 16.581 37.034 37.034h4Zm-41.034-41.034-.477.003.045 4 .432-.003v-4Zm-2.454 2v.003h4v-.003h-4Zm-8.084 2h10.084v-4h-10.084v4Zm1.982-1.729a62.37 62.37 0 0 0 .571-8.441h-4a58.46 58.46 0 0 1-.534 7.9l3.963.541Zm.571-8.441c0-34.192-27.719-61.911-61.912-61.911v4c31.984 0 57.912 25.928 57.912 57.911h4Zm-61.912-61.911c-34.192 0-61.911 27.719-61.911 61.911h4c0-31.983 25.928-57.911 57.911-57.911v-4Zm-61.911 61.911c0 3.225.247 6.393.722 9.486l3.954-.608a58.37 58.37 0 0 1-.676-8.878h-4Zm3.152 7.234a41.171 41.171 0 0 0-9.322-1.064v4c2.898 0 5.715.333 8.417.961l.905-3.897Zm-9.322-1.064c-22.662 0-41.033 18.372-41.033 41.034h4c0-20.453 16.58-37.034 37.033-37.034v-4Zm-41.033 41.034c0 22.662 18.371 41.033 41.033 41.033v-4c-20.453 0-37.033-16.58-37.033-37.033h-4ZM118.154 286c.16 0 .319-.001.478-.003l-.045-3.999-.433.002v4Zm2.023-.761.002-.002-3.139-2.479-.002.002 3.139 2.479ZM255.678 282H118.607v4h137.071v-4Zm-2 1.997V284h4v-.003h-4Z" fill="url(#h)" mask="url(#i)"/><defs><linearGradient id="a" x1="175" y1="0" x2="175" y2="350" gradientUnits="userSpaceOnUse"><stop stop-color="#D2E0E8"/><stop offset="1" stop-color="#3AA9E8"/></linearGradient><linearGradient id="b" x1="130.621" y1="70.024" x2="130.621" y2="218.241" gradientUnits="userSpaceOnUse"><stop stop-color="#FFE600"/><stop offset="1" stop-color="#FF7A00"/></linearGradient><linearGradient id="c" x1="130.621" y1="70.024" x2="130.621" y2="218.241" gradientUnits="userSpaceOnUse"><stop stop-color="#fff"/><stop offset="1" stop-color="#fff" stop-opacity="0"/></linearGradient><linearGradient id="d" x1="130.621" y1="70.024" x2="130.621" y2="218.241" gradientUnits="userSpaceOnUse"><stop stop-color="#FFD600"/><stop offset="1" stop-color="#FF7A00"/></linearGradient><linearGradient id="g" x1="197.192" y1="142.248" x2="197.192" y2="300.514" gradientUnits="userSpaceOnUse"><stop stop-color="#fff"/><stop offset="1" stop-color="#fff" stop-opacity="0"/></linearGradient><linearGradient id="h" x1="187.143" y1="137.852" x2="187.143" y2="284" gradientUnits="userSpaceOnUse"><stop stop-color="#fff"/><stop offset="1" stop-color="#fff" stop-opacity="0"/></linearGradient><filter id="f" x="-69.278" y="211.777" width="326.945" height="136.023" filterUnits="userSpaceOnUse" color-interpolation-filters="sRGB"><feFlood flood-opacity="0" result="BackgroundImageFix"/><feBlend in="SourceGraphic" in2="BackgroundImageFix" result="shape"/><feGaussianBlur stdDeviation="7" result="effect1_foregroundBlur_0_1"/></filter></defs></svg>