<svg width="354" height="354" fill="none" xmlns="http://www.w3.org/2000/svg"><g filter="url(#a)"><circle cx="176.62" cy="176.62" r="76.62" fill="#FFC701" fill-opacity=".35"/></g><circle cx="176.62" cy="179.132" r="74.108" fill="url(#b)"/><mask id="d" style="mask-type:alpha" maskUnits="userSpaceOnUse" x="102" y="146" width="149" height="108"><path d="M250.729 179.133c0 40.928-33.18 74.108-74.109 74.108-40.928 0-74.108-33.18-74.108-74.108 0-40.929 27.527-31.402 68.456-31.402s79.761-9.527 79.761 31.402Z" fill="url(#c)"/></mask><g filter="url(#e)" mask="url(#d)"><path fill-rule="evenodd" clip-rule="evenodd" d="M289.667 314.788c0 29.83-24.181 54.011-54.011 54.011-.209 0-.419-.001-.628-.003v.003H45.361l.003-.003c-.21.003-.42.004-.631.004-29.83 0-54.011-24.182-54.011-54.011 0-29.83 24.181-54.011 54.01-54.011 25.713 0 47.229 17.966 52.679 42.03l18.29-23.19 57.152-18.841h62.175v.004c.209-.003.419-.004.628-.004 29.83 0 54.011 24.182 54.011 54.011Z" fill="#E18700"/></g><defs><linearGradient id="b" x1="176.62" y1="105.024" x2="176.62" y2="253.241" gradientUnits="userSpaceOnUse"><stop stop-color="#FFE600"/><stop offset="1" stop-color="#FF7A00"/></linearGradient><linearGradient id="c" x1="176.62" y1="105.024" x2="176.62" y2="253.241" gradientUnits="userSpaceOnUse"><stop stop-color="#FFD600"/><stop offset="1" stop-color="#FF7A00"/></linearGradient><filter id="a" x="0" y="0" width="353.241" height="353.241" filterUnits="userSpaceOnUse" color-interpolation-filters="sRGB"><feFlood flood-opacity="0" result="BackgroundImageFix"/><feBlend in="SourceGraphic" in2="BackgroundImageFix" result="shape"/><feGaussianBlur stdDeviation="50" result="effect1_foregroundBlur_2_76"/></filter><filter id="e" x="-23.278" y="246.777" width="326.945" height="136.023" filterUnits="userSpaceOnUse" color-interpolation-filters="sRGB"><feFlood flood-opacity="0" result="BackgroundImageFix"/><feBlend in="SourceGraphic" in2="BackgroundImageFix" result="shape"/><feGaussianBlur stdDeviation="7" result="effect1_foregroundBlur_2_76"/></filter></defs></svg>