<svg width="404" height="328" fill="none" xmlns="http://www.w3.org/2000/svg"><g filter="url(#a)"><circle cx="244" cy="105" r="61" fill="#FFC701" fill-opacity=".5"/></g><circle cx="244" cy="107" r="59" fill="url(#b)"/><mask id="d" style="mask-type:alpha" maskUnits="userSpaceOnUse" x="185" y="81" width="118" height="85"><path d="M303 107c0 32.585-26.415 59-59 59s-59-26.415-59-59 21.915-25 54.5-25 63.5-7.585 63.5 25Z" fill="url(#c)"/></mask><g filter="url(#e)" mask="url(#d)"><path fill-rule="evenodd" clip-rule="evenodd" d="M290.5 257.997c.166.002.333.003.5.003 23.748 0 43-19.252 43-43s-19.252-43-43-43c-.167 0-.334.001-.5.003V172h-27.413c.601-3.577.913-7.252.913-11 0-36.451-29.549-66-66-66s-66 29.549-66 66c0 3.894.337 7.709.984 11.418C112.084 175.343 96 193.293 96 215c0 23.748 19.252 43 43 43 .168 0 .335-.001.502-.003l-.002.003h151v-.003Z" fill="#E18700"/></g><g filter="url(#f)"><path fill-rule="evenodd" clip-rule="evenodd" d="M265.5 262.997c.166.002.333.003.5.003 23.748 0 43-19.252 43-43s-19.252-43-43-43c-.167 0-.334.001-.5.003V177h-11.109a66.47 66.47 0 0 0 .609-9c0-36.451-29.549-66-66-66s-66 29.549-66 66c0 3.439.263 6.817.77 10.115A43.142 43.142 0 0 0 114 177c-23.748 0-43 19.252-43 43s19.252 43 43 43c.168 0 .335-.001.502-.003l-.002.003h151v-.003Z" fill="url(#g)" shape-rendering="crispEdges"/></g><g filter="url(#h)"><path fill-rule="evenodd" clip-rule="evenodd" d="m343.563 218.351.361.002c17.163 0 31.076-13.913 31.076-31.076 0-17.162-13.913-31.075-31.076-31.075-.12 0-.241 0-.361.002v-.002h-8.028c.29-2.127.44-4.298.44-6.505 0-26.342-21.355-47.697-47.698-47.697-26.342 0-47.697 21.355-47.697 47.697 0 2.486.19 4.927.556 7.31a31.166 31.166 0 0 0-7.06-.805c-17.163 0-31.076 13.913-31.076 31.075 0 17.163 13.913 31.076 31.076 31.076l.363-.002-.002.002h109.126v-.002Z" fill="url(#i)" shape-rendering="crispEdges"/></g><defs><linearGradient id="b" x1="244" y1="48" x2="244" y2="166" gradientUnits="userSpaceOnUse"><stop stop-color="#FFE600"/><stop offset="1" stop-color="#FF7A00"/></linearGradient><linearGradient id="c" x1="244" y1="48" x2="244" y2="166" gradientUnits="userSpaceOnUse"><stop stop-color="#FFD600"/><stop offset="1" stop-color="#FF7A00"/></linearGradient><linearGradient id="g" x1="190" y1="50.5" x2="190" y2="285.5" gradientUnits="userSpaceOnUse"><stop stop-color="#fff"/><stop offset="1" stop-color="#fff" stop-opacity="0"/></linearGradient><linearGradient id="i" x1="297" y1="105.5" x2="297" y2="231.5" gradientUnits="userSpaceOnUse"><stop stop-color="#fff"/><stop offset="1" stop-color="#fff" stop-opacity="0"/></linearGradient><filter id="a" x="139" y="0" width="210" height="210" filterUnits="userSpaceOnUse" color-interpolation-filters="sRGB"><feFlood flood-opacity="0" result="BackgroundImageFix"/><feBlend in="SourceGraphic" in2="BackgroundImageFix" result="shape"/><feGaussianBlur stdDeviation="22" result="effect1_foregroundBlur_104_1415"/></filter><filter id="e" x="82" y="81" width="266" height="191" filterUnits="userSpaceOnUse" color-interpolation-filters="sRGB"><feFlood flood-opacity="0" result="BackgroundImageFix"/><feBlend in="SourceGraphic" in2="BackgroundImageFix" result="shape"/><feGaussianBlur stdDeviation="7" result="effect1_foregroundBlur_104_1415"/></filter><filter id="f" x="0" y="67" width="338" height="261" filterUnits="userSpaceOnUse" color-interpolation-filters="sRGB"><feFlood flood-opacity="0" result="BackgroundImageFix"/><feGaussianBlur in="BackgroundImage" stdDeviation="7"/><feComposite in2="SourceAlpha" operator="in" result="effect1_backgroundBlur_104_1415"/><feColorMatrix in="SourceAlpha" values="0 0 0 0 0 0 0 0 0 0 0 0 0 0 0 0 0 0 127 0" result="hardAlpha"/><feOffset dx="-21" dy="15"/><feGaussianBlur stdDeviation="25"/><feComposite in2="hardAlpha" operator="out"/><feColorMatrix values="0 0 0 0 0.113725 0 0 0 0 0.14902 0 0 0 0 0.27451 0 0 0 0.25 0"/><feBlend in2="effect1_backgroundBlur_104_1415" result="effect2_dropShadow_104_1415"/><feBlend in="SourceGraphic" in2="effect2_dropShadow_104_1415" result="shape"/></filter><filter id="h" x="132" y="67" width="272" height="216.353" filterUnits="userSpaceOnUse" color-interpolation-filters="sRGB"><feFlood flood-opacity="0" result="BackgroundImageFix"/><feGaussianBlur in="BackgroundImage" stdDeviation="7"/><feComposite in2="SourceAlpha" operator="in" result="effect1_backgroundBlur_104_1415"/><feColorMatrix in="SourceAlpha" values="0 0 0 0 0 0 0 0 0 0 0 0 0 0 0 0 0 0 127 0" result="hardAlpha"/><feOffset dx="-21" dy="15"/><feGaussianBlur stdDeviation="25"/><feComposite in2="hardAlpha" operator="out"/><feColorMatrix values="0 0 0 0 0.113438 0 0 0 0 0.148981 0 0 0 0 0.275 0 0 0 0.25 0"/><feBlend in2="effect1_backgroundBlur_104_1415" result="effect2_dropShadow_104_1415"/><feBlend in="SourceGraphic" in2="effect2_dropShadow_104_1415" result="shape"/></filter></defs></svg>