<svg width="404" height="367" fill="none" xmlns="http://www.w3.org/2000/svg"><g filter="url(#a)"><path fill-rule="evenodd" clip-rule="evenodd" d="M212.019 38.137c3.437-.61 5.526 3.46 3.716 6.444-9.471 15.62-10.845 35.648-1.877 53.083 11.939 23.21 38.274 34.183 62.49 27.622 3.373-.914 6.706 2.224 5.165 5.36-5.928 12.069-15.648 22.405-28.524 29.028-31.848 16.382-70.946 3.844-87.327-28.004-16.382-31.848-3.844-70.946 28.004-87.327a64.835 64.835 0 0 1 18.353-6.206Z" fill="url(#b)"/></g><mask id="d" style="mask-type:alpha" maskUnits="userSpaceOnUse" x="185" y="120" width="118" height="85"><path d="M303 146c0 32.585-26.415 59-59 59s-59-26.415-59-59 21.915-25 54.5-25 63.5-7.585 63.5 25Z" fill="url(#c)"/></mask><g filter="url(#e)" mask="url(#d)"><path fill-rule="evenodd" clip-rule="evenodd" d="M139.502 296.997c-.167.002-.334.003-.502.003-23.748 0-43-19.252-43-43s19.252-43 43-43c20.47 0 37.6 14.304 41.938 33.462L195.5 226l45.5-15h49.5v.003c.166-.002.333-.003.5-.003 23.748 0 43 19.252 43 43s-19.252 43-43 43c-.167 0-.334-.001-.5-.003V297h-151l.002-.003Z" fill="#E18700"/></g><g filter="url(#f)"><path fill-rule="evenodd" clip-rule="evenodd" d="M265.5 301.997c.166.002.333.003.5.003 23.748 0 43-19.252 43-43s-19.252-43-43-43c-.167 0-.334.001-.5.003V216h-11.109a66.47 66.47 0 0 0 .609-9c0-36.451-29.549-66-66-66s-66 29.549-66 66c0 3.439.263 6.817.77 10.115A43.142 43.142 0 0 0 114 216c-23.748 0-43 19.252-43 43s19.252 43 43 43c.168 0 .335-.001.502-.003l-.002.003h151v-.003Z" fill="url(#g)" shape-rendering="crispEdges"/></g><g filter="url(#h)"><path fill-rule="evenodd" clip-rule="evenodd" d="m343.563 257.351.361.002c17.163 0 31.076-13.913 31.076-31.076 0-17.162-13.913-31.075-31.076-31.075-.12 0-.241 0-.361.002v-.002h-8.028c.29-2.127.44-4.298.44-6.505 0-26.342-21.355-47.697-47.698-47.697-26.342 0-47.697 21.355-47.697 47.697 0 2.486.19 4.927.556 7.31a31.166 31.166 0 0 0-7.06-.805c-17.163 0-31.076 13.913-31.076 31.075 0 17.163 13.913 31.076 31.076 31.076l.363-.002-.002.002h109.126v-.002Z" fill="url(#i)" shape-rendering="crispEdges"/></g><defs><linearGradient id="b" x1="181.067" y1="52.108" x2="240.39" y2="167.44" gradientUnits="userSpaceOnUse"><stop offset="0" stop-color="#D4C0FF"/><stop offset="1" stop-color="#7E2FFF"/></linearGradient><linearGradient id="c" x1="244" y1="87" x2="244" y2="205" gradientUnits="userSpaceOnUse"><stop stop-color="#FFD600"/><stop offset="1" stop-color="#FF7A00"/></linearGradient><linearGradient id="g" x1="190" y1="89.5" x2="190" y2="324.5" gradientUnits="userSpaceOnUse"><stop stop-color="#fff"/><stop offset="1" stop-color="#fff" stop-opacity="0"/></linearGradient><linearGradient id="i" x1="297" y1="144.5" x2="297" y2="270.5" gradientUnits="userSpaceOnUse"><stop stop-color="#fff"/><stop offset="1" stop-color="#fff" stop-opacity="0"/></linearGradient><filter id="a" x="87.467" y=".076" width="232.434" height="231.793" filterUnits="userSpaceOnUse" color-interpolation-filters="sRGB"><feFlood flood-opacity="0" result="BackgroundImageFix"/><feGaussianBlur in="BackgroundImage" stdDeviation="7"/><feComposite in2="SourceAlpha" operator="in" result="effect1_backgroundBlur_106_1423"/><feColorMatrix in="SourceAlpha" values="0 0 0 0 0 0 0 0 0 0 0 0 0 0 0 0 0 0 127 0" result="hardAlpha"/><feOffset dx="-21" dy="15"/><feGaussianBlur stdDeviation="25"/><feComposite in2="hardAlpha" operator="out"/><feColorMatrix values="0 0 0 0 0.113438 0 0 0 0 0.148981 0 0 0 0 0.275 0 0 0 0.25 0"/><feBlend in2="effect1_backgroundBlur_106_1423" result="effect2_dropShadow_106_1423"/><feColorMatrix in="SourceAlpha" values="0 0 0 0 0 0 0 0 0 0 0 0 0 0 0 0 0 0 127 0" result="hardAlpha"/><feOffset/><feGaussianBlur stdDeviation="19"/><feComposite in2="hardAlpha" operator="out"/><feColorMatrix values="0 0 0 0 0.619608 0 0 0 0 0.423529 0 0 0 0 1 0 0 0 0.4 0"/><feBlend in2="effect2_dropShadow_106_1423" result="effect3_dropShadow_106_1423"/><feBlend in="SourceGraphic" in2="effect3_dropShadow_106_1423" result="shape"/></filter><filter id="e" x="82" y="197" width="266" height="114" filterUnits="userSpaceOnUse" color-interpolation-filters="sRGB"><feFlood flood-opacity="0" result="BackgroundImageFix"/><feBlend in="SourceGraphic" in2="BackgroundImageFix" result="shape"/><feGaussianBlur stdDeviation="7" result="effect1_foregroundBlur_106_1423"/></filter><filter id="f" x="0" y="106" width="338" height="261" filterUnits="userSpaceOnUse" color-interpolation-filters="sRGB"><feFlood flood-opacity="0" result="BackgroundImageFix"/><feGaussianBlur in="BackgroundImage" stdDeviation="7"/><feComposite in2="SourceAlpha" operator="in" result="effect1_backgroundBlur_106_1423"/><feColorMatrix in="SourceAlpha" values="0 0 0 0 0 0 0 0 0 0 0 0 0 0 0 0 0 0 127 0" result="hardAlpha"/><feOffset dx="-21" dy="15"/><feGaussianBlur stdDeviation="25"/><feComposite in2="hardAlpha" operator="out"/><feColorMatrix values="0 0 0 0 0.113725 0 0 0 0 0.14902 0 0 0 0 0.27451 0 0 0 0.25 0"/><feBlend in2="effect1_backgroundBlur_106_1423" result="effect2_dropShadow_106_1423"/><feBlend in="SourceGraphic" in2="effect2_dropShadow_106_1423" result="shape"/></filter><filter id="h" x="132" y="106" width="272" height="216.353" filterUnits="userSpaceOnUse" color-interpolation-filters="sRGB"><feFlood flood-opacity="0" result="BackgroundImageFix"/><feGaussianBlur in="BackgroundImage" stdDeviation="7"/><feComposite in2="SourceAlpha" operator="in" result="effect1_backgroundBlur_106_1423"/><feColorMatrix in="SourceAlpha" values="0 0 0 0 0 0 0 0 0 0 0 0 0 0 0 0 0 0 127 0" result="hardAlpha"/><feOffset dx="-21" dy="15"/><feGaussianBlur stdDeviation="25"/><feComposite in2="hardAlpha" operator="out"/><feColorMatrix values="0 0 0 0 0.113438 0 0 0 0 0.148981 0 0 0 0 0.275 0 0 0 0.25 0"/><feBlend in2="effect1_backgroundBlur_106_1423" result="effect2_dropShadow_106_1423"/><feBlend in="SourceGraphic" in2="effect2_dropShadow_106_1423" result="shape"/></filter></defs></svg>