<svg width="444" height="296" fill="none" xmlns="http://www.w3.org/2000/svg"><g filter="url(#a)"><path fill-rule="evenodd" clip-rule="evenodd" d="m211.563 151.351.361.002c17.163 0 31.076-13.913 31.076-31.076 0-17.162-13.913-31.075-31.076-31.075-.12 0-.241 0-.361.002v-.002h-8.028c.29-2.127.44-4.298.44-6.504C203.975 56.355 182.62 35 156.277 35c-26.342 0-47.697 21.355-47.697 47.698 0 2.485.19 4.926.556 7.31a31.16 31.16 0 0 0-7.06-.806C84.913 89.202 71 103.115 71 120.277c0 17.163 13.913 31.076 31.076 31.076l.363-.002-.002.002h109.126v-.002Z" fill="url(#b)" shape-rendering="crispEdges"/></g><g filter="url(#c)"><path fill-rule="evenodd" clip-rule="evenodd" d="M305.5 230.997c.166.002.333.003.5.003 23.748 0 43-19.252 43-43s-19.252-43-43-43c-.167 0-.334.001-.5.003V145h-11.109a66.47 66.47 0 0 0 .609-9c0-36.45-29.549-66-66-66s-66 29.55-66 66c0 3.439.263 6.817.77 10.115A43.142 43.142 0 0 0 154 145c-23.748 0-43 19.252-43 43s19.252 43 43 43c.168 0 .335-.001.502-.003l-.002.003h151v-.003Z" fill="url(#d)" shape-rendering="crispEdges"/></g><g filter="url(#e)"><path fill-rule="evenodd" clip-rule="evenodd" d="m383.563 186.351.361.002c17.163 0 31.076-13.913 31.076-31.076 0-17.162-13.913-31.075-31.076-31.075-.12 0-.241 0-.361.002v-.002h-8.028c.29-2.127.44-4.298.44-6.505C375.975 91.355 354.62 70 328.277 70c-26.342 0-47.697 21.355-47.697 47.697 0 2.486.19 4.927.556 7.31a31.166 31.166 0 0 0-7.06-.805c-17.163 0-31.076 13.913-31.076 31.075 0 17.163 13.913 31.076 31.076 31.076l.363-.002-.002.002h109.126v-.002Z" fill="url(#f)" shape-rendering="crispEdges"/></g><defs><linearGradient id="b" x1="165" y1="38.5" x2="165" y2="164.5" gradientUnits="userSpaceOnUse"><stop stop-color="#fff"/><stop offset="1" stop-color="#fff" stop-opacity="0"/></linearGradient><linearGradient id="d" x1="230" y1="18.5" x2="230" y2="253.5" gradientUnits="userSpaceOnUse"><stop stop-color="#fff"/><stop offset="1" stop-color="#fff" stop-opacity="0"/></linearGradient><linearGradient id="f" x1="337" y1="73.5" x2="337" y2="199.5" gradientUnits="userSpaceOnUse"><stop stop-color="#fff"/><stop offset="1" stop-color="#fff" stop-opacity="0"/></linearGradient><filter id="a" x="0" y="0" width="272" height="216.353" filterUnits="userSpaceOnUse" color-interpolation-filters="sRGB"><feFlood flood-opacity="0" result="BackgroundImageFix"/><feGaussianBlur in="BackgroundImage" stdDeviation="7"/><feComposite in2="SourceAlpha" operator="in" result="effect1_backgroundBlur_106_1417"/><feColorMatrix in="SourceAlpha" values="0 0 0 0 0 0 0 0 0 0 0 0 0 0 0 0 0 0 127 0" result="hardAlpha"/><feOffset dx="-21" dy="15"/><feGaussianBlur stdDeviation="25"/><feComposite in2="hardAlpha" operator="out"/><feColorMatrix values="0 0 0 0 0.113438 0 0 0 0 0.148981 0 0 0 0 0.275 0 0 0 0.25 0"/><feBlend in2="effect1_backgroundBlur_106_1417" result="effect2_dropShadow_106_1417"/><feBlend in="SourceGraphic" in2="effect2_dropShadow_106_1417" result="shape"/></filter><filter id="c" x="40" y="35" width="338" height="261" filterUnits="userSpaceOnUse" color-interpolation-filters="sRGB"><feFlood flood-opacity="0" result="BackgroundImageFix"/><feGaussianBlur in="BackgroundImage" stdDeviation="7"/><feComposite in2="SourceAlpha" operator="in" result="effect1_backgroundBlur_106_1417"/><feColorMatrix in="SourceAlpha" values="0 0 0 0 0 0 0 0 0 0 0 0 0 0 0 0 0 0 127 0" result="hardAlpha"/><feOffset dx="-21" dy="15"/><feGaussianBlur stdDeviation="25"/><feComposite in2="hardAlpha" operator="out"/><feColorMatrix values="0 0 0 0 0.113725 0 0 0 0 0.14902 0 0 0 0 0.27451 0 0 0 0.25 0"/><feBlend in2="effect1_backgroundBlur_106_1417" result="effect2_dropShadow_106_1417"/><feBlend in="SourceGraphic" in2="effect2_dropShadow_106_1417" result="shape"/></filter><filter id="e" x="172" y="35" width="272" height="216.353" filterUnits="userSpaceOnUse" color-interpolation-filters="sRGB"><feFlood flood-opacity="0" result="BackgroundImageFix"/><feGaussianBlur in="BackgroundImage" stdDeviation="7"/><feComposite in2="SourceAlpha" operator="in" result="effect1_backgroundBlur_106_1417"/><feColorMatrix in="SourceAlpha" values="0 0 0 0 0 0 0 0 0 0 0 0 0 0 0 0 0 0 127 0" result="hardAlpha"/><feOffset dx="-21" dy="15"/><feGaussianBlur stdDeviation="25"/><feComposite in2="hardAlpha" operator="out"/><feColorMatrix values="0 0 0 0 0.113438 0 0 0 0 0.148981 0 0 0 0 0.275 0 0 0 0.25 0"/><feBlend in2="effect1_backgroundBlur_106_1417" result="effect2_dropShadow_106_1417"/><feBlend in="SourceGraphic" in2="effect2_dropShadow_106_1417" result="shape"/></filter></defs></svg>