<svg width="404" height="314" fill="none" xmlns="http://www.w3.org/2000/svg"><g filter="url(#a)"><path fill-rule="evenodd" clip-rule="evenodd" d="M265.5 195.997c.166.002.333.003.5.003 23.748 0 43-19.252 43-43s-19.252-43-43-43c-.167 0-.334.001-.5.003V110h-11.109a66.47 66.47 0 0 0 .609-9c0-36.45-29.549-66-66-66s-66 29.55-66 66c0 3.439.263 6.817.77 10.115A43.142 43.142 0 0 0 114 110c-23.748 0-43 19.252-43 43s19.252 43 43 43c.168 0 .335-.001.502-.003l-.002.003h151v-.003Z" fill="url(#b)" shape-rendering="crispEdges"/></g><g filter="url(#c)"><path fill-rule="evenodd" clip-rule="evenodd" d="m343.563 151.351.361.002c17.163 0 31.076-13.913 31.076-31.076 0-17.162-13.913-31.075-31.076-31.075-.12 0-.241 0-.361.002v-.002h-8.028c.29-2.127.44-4.298.44-6.504C335.975 56.355 314.62 35 288.277 35c-26.342 0-47.697 21.355-47.697 47.698 0 2.485.19 4.926.556 7.31a31.16 31.16 0 0 0-7.06-.806c-17.163 0-31.076 13.913-31.076 31.075 0 17.163 13.913 31.076 31.076 31.076l.363-.002-.002.002h109.126v-.002Z" fill="url(#d)" shape-rendering="crispEdges"/></g><g filter="url(#e)"><path d="M164.919 168.686c3.865-4.961 11.812-2.544 12.259 3.729l1.174 16.433c.659 9.228-8.141 16.249-16.993 13.556-8.851-2.692-12.251-13.424-6.565-20.722l10.125-12.996Z" fill="url(#f)"/><path d="M222.427 168.686c3.864-4.961 11.811-2.544 12.259 3.729l1.173 16.433c.659 9.228-8.141 16.249-16.992 13.556-8.852-2.692-12.252-13.424-6.566-20.722l10.126-12.996Z" fill="url(#g)"/><path d="M279.934 168.686c3.865-4.961 11.811-2.544 12.259 3.729l1.174 16.433c.659 9.228-8.142 16.249-16.993 13.556-8.851-2.692-12.251-13.424-6.565-20.722l10.125-12.996Z" fill="url(#h)"/></g><g filter="url(#i)"><path d="M180.093 214.206c3.864-4.961 11.811-2.544 12.259 3.729l1.173 16.433c.659 9.228-8.141 16.249-16.992 13.557-8.852-2.693-12.252-13.425-6.566-20.723l10.126-12.996Z" fill="url(#j)"/><path d="M228.679 214.206c3.865-4.961 11.812-2.544 12.26 3.729l1.173 16.433c.659 9.228-8.141 16.249-16.992 13.557-8.852-2.693-12.252-13.425-6.566-20.723l10.125-12.996Z" fill="url(#k)"/></g><defs><linearGradient id="b" x1="190" y1="-16.5" x2="190" y2="218.5" gradientUnits="userSpaceOnUse"><stop stop-color="#fff"/><stop offset="1" stop-color="#fff" stop-opacity="0"/></linearGradient><linearGradient id="d" x1="297" y1="38.5" x2="297" y2="164.5" gradientUnits="userSpaceOnUse"><stop stop-color="#fff"/><stop offset="1" stop-color="#fff" stop-opacity="0"/></linearGradient><linearGradient id="f" x1="175.905" y1="154.585" x2="161.359" y2="202.404" gradientUnits="userSpaceOnUse"><stop stop-color="#138EFF"/><stop offset="1" stop-color="#00E0FF"/></linearGradient><linearGradient id="g" x1="233.413" y1="154.585" x2="218.867" y2="202.404" gradientUnits="userSpaceOnUse"><stop stop-color="#138EFF"/><stop offset="1" stop-color="#00E0FF"/></linearGradient><linearGradient id="h" x1="290.92" y1="154.585" x2="276.374" y2="202.404" gradientUnits="userSpaceOnUse"><stop stop-color="#138EFF"/><stop offset="1" stop-color="#00E0FF"/></linearGradient><linearGradient id="j" x1="191.079" y1="200.105" x2="176.533" y2="247.925" gradientUnits="userSpaceOnUse"><stop stop-color="#138EFF"/><stop offset="1" stop-color="#00E0FF"/></linearGradient><linearGradient id="k" x1="239.666" y1="200.105" x2="225.12" y2="247.925" gradientUnits="userSpaceOnUse"><stop stop-color="#138EFF"/><stop offset="1" stop-color="#00E0FF"/></linearGradient><filter id="a" x="0" y="0" width="338" height="261" filterUnits="userSpaceOnUse" color-interpolation-filters="sRGB"><feFlood flood-opacity="0" result="BackgroundImageFix"/><feGaussianBlur in="BackgroundImage" stdDeviation="7"/><feComposite in2="SourceAlpha" operator="in" result="effect1_backgroundBlur_106_1418"/><feColorMatrix in="SourceAlpha" values="0 0 0 0 0 0 0 0 0 0 0 0 0 0 0 0 0 0 127 0" result="hardAlpha"/><feOffset dx="-21" dy="15"/><feGaussianBlur stdDeviation="25"/><feComposite in2="hardAlpha" operator="out"/><feColorMatrix values="0 0 0 0 0.113725 0 0 0 0 0.14902 0 0 0 0 0.27451 0 0 0 0.25 0"/><feBlend in2="effect1_backgroundBlur_106_1418" result="effect2_dropShadow_106_1418"/><feBlend in="SourceGraphic" in2="effect2_dropShadow_106_1418" result="shape"/></filter><filter id="c" x="132" y="0" width="272" height="216.353" filterUnits="userSpaceOnUse" color-interpolation-filters="sRGB"><feFlood flood-opacity="0" result="BackgroundImageFix"/><feGaussianBlur in="BackgroundImage" stdDeviation="7"/><feComposite in2="SourceAlpha" operator="in" result="effect1_backgroundBlur_106_1418"/><feColorMatrix in="SourceAlpha" values="0 0 0 0 0 0 0 0 0 0 0 0 0 0 0 0 0 0 127 0" result="hardAlpha"/><feOffset dx="-21" dy="15"/><feGaussianBlur stdDeviation="25"/><feComposite in2="hardAlpha" operator="out"/><feColorMatrix values="0 0 0 0 0.113438 0 0 0 0 0.148981 0 0 0 0 0.275 0 0 0 0.25 0"/><feBlend in2="effect1_backgroundBlur_106_1418" result="effect2_dropShadow_106_1418"/><feBlend in="SourceGraphic" in2="effect2_dropShadow_106_1418" result="shape"/></filter><filter id="e" x="81.002" y="118.031" width="253.399" height="149.955" filterUnits="userSpaceOnUse" color-interpolation-filters="sRGB"><feFlood flood-opacity="0" result="BackgroundImageFix"/><feGaussianBlur in="BackgroundImage" stdDeviation="7"/><feComposite in2="SourceAlpha" operator="in" result="effect1_backgroundBlur_106_1418"/><feColorMatrix in="SourceAlpha" values="0 0 0 0 0 0 0 0 0 0 0 0 0 0 0 0 0 0 127 0" result="hardAlpha"/><feOffset dx="-21" dy="15"/><feGaussianBlur stdDeviation="25"/><feComposite in2="hardAlpha" operator="out"/><feColorMatrix values="0 0 0 0 0.113438 0 0 0 0 0.148981 0 0 0 0 0.275 0 0 0 0.25 0"/><feBlend in2="effect1_backgroundBlur_106_1418" result="effect2_dropShadow_106_1418"/><feColorMatrix in="SourceAlpha" values="0 0 0 0 0 0 0 0 0 0 0 0 0 0 0 0 0 0 127 0" result="hardAlpha"/><feOffset dy="-7"/><feGaussianBlur stdDeviation="20.5"/><feComposite in2="hardAlpha" operator="out"/><feColorMatrix values="0 0 0 0 0.1375 0 0 0 0 0.74125 0 0 0 0 1 0 0 0 0.3 0"/><feBlend in2="effect2_dropShadow_106_1418" result="effect3_dropShadow_106_1418"/><feBlend in="SourceGraphic" in2="effect3_dropShadow_106_1418" result="shape"/></filter><filter id="i" x="96.175" y="163.551" width="186.972" height="149.955" filterUnits="userSpaceOnUse" color-interpolation-filters="sRGB"><feFlood flood-opacity="0" result="BackgroundImageFix"/><feGaussianBlur in="BackgroundImage" stdDeviation="7"/><feComposite in2="SourceAlpha" operator="in" result="effect1_backgroundBlur_106_1418"/><feColorMatrix in="SourceAlpha" values="0 0 0 0 0 0 0 0 0 0 0 0 0 0 0 0 0 0 127 0" result="hardAlpha"/><feOffset dx="-21" dy="15"/><feGaussianBlur stdDeviation="25"/><feComposite in2="hardAlpha" operator="out"/><feColorMatrix values="0 0 0 0 0.113438 0 0 0 0 0.148981 0 0 0 0 0.275 0 0 0 0.25 0"/><feBlend in2="effect1_backgroundBlur_106_1418" result="effect2_dropShadow_106_1418"/><feColorMatrix in="SourceAlpha" values="0 0 0 0 0 0 0 0 0 0 0 0 0 0 0 0 0 0 127 0" result="hardAlpha"/><feOffset dy="-7"/><feGaussianBlur stdDeviation="20.5"/><feComposite in2="hardAlpha" operator="out"/><feColorMatrix values="0 0 0 0 0.1375 0 0 0 0 0.74125 0 0 0 0 1 0 0 0 0.3 0"/><feBlend in2="effect2_dropShadow_106_1418" result="effect3_dropShadow_106_1418"/><feBlend in="SourceGraphic" in2="effect3_dropShadow_106_1418" result="shape"/></filter></defs></svg>