<svg width="404" height="390" fill="none" xmlns="http://www.w3.org/2000/svg"><g filter="url(#a)"><path d="m147.617 233.541 47.814-87.5a2 2 0 0 1 1.755-1.041h47.009c1.503 0 2.469 1.596 1.771 2.928l-29.932 57.144c-.698 1.332.268 2.928 1.771 2.928h36.722c1.729 0 2.643 2.045 1.49 3.334L155.581 323.585c-1.474 1.648-4.138.038-3.364-2.033l30.774-82.352a2 2 0 0 0-1.873-2.7h-31.746c-1.519 0-2.483-1.626-1.755-2.959Z" fill="url(#b)"/></g><g filter="url(#c)"><path fill-rule="evenodd" clip-rule="evenodd" d="M265.5 195.997c.166.002.333.003.5.003 23.748 0 43-19.252 43-43s-19.252-43-43-43c-.167 0-.334.001-.5.003V110h-11.109a66.47 66.47 0 0 0 .609-9c0-36.45-29.549-66-66-66s-66 29.55-66 66c0 3.439.263 6.817.77 10.115A43.142 43.142 0 0 0 114 110c-23.748 0-43 19.252-43 43s19.252 43 43 43c.168 0 .335-.001.502-.003l-.002.003h151v-.003Z" fill="url(#d)" shape-rendering="crispEdges"/></g><g filter="url(#e)"><path fill-rule="evenodd" clip-rule="evenodd" d="m343.563 151.351.361.002c17.163 0 31.076-13.913 31.076-31.076 0-17.162-13.913-31.075-31.076-31.075-.12 0-.241 0-.361.002v-.002h-8.028c.29-2.127.44-4.298.44-6.504C335.975 56.355 314.62 35 288.277 35c-26.342 0-47.697 21.355-47.697 47.698 0 2.485.19 4.926.556 7.31a31.16 31.16 0 0 0-7.06-.806c-17.163 0-31.076 13.913-31.076 31.075 0 17.163 13.913 31.076 31.076 31.076l.363-.002-.002.002h109.126v-.002Z" fill="url(#f)" shape-rendering="crispEdges"/></g><defs><linearGradient id="b" x1="213.5" y1="156" x2="188.5" y2="264.5" gradientUnits="userSpaceOnUse"><stop stop-color="#FF4D00"/><stop offset="1" stop-color="#FFB800"/></linearGradient><linearGradient id="d" x1="190" y1="-16.5" x2="190" y2="218.5" gradientUnits="userSpaceOnUse"><stop stop-color="#fff"/><stop offset="1" stop-color="#fff" stop-opacity="0"/></linearGradient><linearGradient id="f" x1="297" y1="38.5" x2="297" y2="164.5" gradientUnits="userSpaceOnUse"><stop stop-color="#fff"/><stop offset="1" stop-color="#fff" stop-opacity="0"/></linearGradient><filter id="a" x="76.369" y="84" width="241.162" height="305.265" filterUnits="userSpaceOnUse" color-interpolation-filters="sRGB"><feFlood flood-opacity="0" result="BackgroundImageFix"/><feGaussianBlur in="BackgroundImage" stdDeviation="7"/><feComposite in2="SourceAlpha" operator="in" result="effect1_backgroundBlur_106_1419"/><feColorMatrix in="SourceAlpha" values="0 0 0 0 0 0 0 0 0 0 0 0 0 0 0 0 0 0 127 0" result="hardAlpha"/><feOffset dx="-21" dy="15"/><feGaussianBlur stdDeviation="25"/><feComposite in2="hardAlpha" operator="out"/><feColorMatrix values="0 0 0 0 0.113438 0 0 0 0 0.148981 0 0 0 0 0.275 0 0 0 0.25 0"/><feBlend in2="effect1_backgroundBlur_106_1419" result="effect2_dropShadow_106_1419"/><feColorMatrix in="SourceAlpha" values="0 0 0 0 0 0 0 0 0 0 0 0 0 0 0 0 0 0 127 0" result="hardAlpha"/><feOffset/><feGaussianBlur stdDeviation="30.5"/><feComposite in2="hardAlpha" operator="out"/><feColorMatrix values="0 0 0 0 1 0 0 0 0 0.721569 0 0 0 0 0.00392157 0 0 0 0.49 0"/><feBlend in2="effect2_dropShadow_106_1419" result="effect3_dropShadow_106_1419"/><feBlend in="SourceGraphic" in2="effect3_dropShadow_106_1419" result="shape"/></filter><filter id="c" x="0" y="0" width="338" height="261" filterUnits="userSpaceOnUse" color-interpolation-filters="sRGB"><feFlood flood-opacity="0" result="BackgroundImageFix"/><feGaussianBlur in="BackgroundImage" stdDeviation="7"/><feComposite in2="SourceAlpha" operator="in" result="effect1_backgroundBlur_106_1419"/><feColorMatrix in="SourceAlpha" values="0 0 0 0 0 0 0 0 0 0 0 0 0 0 0 0 0 0 127 0" result="hardAlpha"/><feOffset dx="-21" dy="15"/><feGaussianBlur stdDeviation="25"/><feComposite in2="hardAlpha" operator="out"/><feColorMatrix values="0 0 0 0 0.113725 0 0 0 0 0.14902 0 0 0 0 0.27451 0 0 0 0.25 0"/><feBlend in2="effect1_backgroundBlur_106_1419" result="effect2_dropShadow_106_1419"/><feBlend in="SourceGraphic" in2="effect2_dropShadow_106_1419" result="shape"/></filter><filter id="e" x="132" y="0" width="272" height="216.353" filterUnits="userSpaceOnUse" color-interpolation-filters="sRGB"><feFlood flood-opacity="0" result="BackgroundImageFix"/><feGaussianBlur in="BackgroundImage" stdDeviation="7"/><feComposite in2="SourceAlpha" operator="in" result="effect1_backgroundBlur_106_1419"/><feColorMatrix in="SourceAlpha" values="0 0 0 0 0 0 0 0 0 0 0 0 0 0 0 0 0 0 127 0" result="hardAlpha"/><feOffset dx="-21" dy="15"/><feGaussianBlur stdDeviation="25"/><feComposite in2="hardAlpha" operator="out"/><feColorMatrix values="0 0 0 0 0.113438 0 0 0 0 0.148981 0 0 0 0 0.275 0 0 0 0.25 0"/><feBlend in2="effect1_backgroundBlur_106_1419" result="effect2_dropShadow_106_1419"/><feBlend in="SourceGraphic" in2="effect2_dropShadow_106_1419" result="shape"/></filter></defs></svg>