<?xml version="1.0" encoding="UTF-8" standalone="no"?>
<svg
   width="404"
   height="314"
   fill="none"
   version="1.1"
   id="svg169"
   sodipodi:docname="mist.svg"
   inkscape:version="1.2.1 (9c6d41e410, 2022-07-14)"
   xmlns:inkscape="http://www.inkscape.org/namespaces/inkscape"
   xmlns:sodipodi="http://sodipodi.sourceforge.net/DTD/sodipodi-0.dtd"
   xmlns:xlink="http://www.w3.org/1999/xlink"
   xmlns="http://www.w3.org/2000/svg"
   xmlns:svg="http://www.w3.org/2000/svg">
  <sodipodi:namedview
     id="namedview171"
     pagecolor="#ffffff"
     bordercolor="#000000"
     borderopacity="0.25"
     inkscape:showpageshadow="2"
     inkscape:pageopacity="0.0"
     inkscape:pagecheckerboard="0"
     inkscape:deskcolor="#d1d1d1"
     showgrid="false"
     inkscape:zoom="2.5605096"
     inkscape:cx="312.82836"
     inkscape:cy="183.36194"
     inkscape:window-width="2400"
     inkscape:window-height="1261"
     inkscape:window-x="2391"
     inkscape:window-y="-9"
     inkscape:window-maximized="1"
     inkscape:current-layer="svg169" />
  <g
     filter="url(#a)"
     id="g4">
    <path
       fill-rule="evenodd"
       clip-rule="evenodd"
       d="M265.5 195.997c.166.002.333.003.5.003 23.748 0 43-19.252 43-43s-19.252-43-43-43c-.167 0-.334.001-.5.003V110h-11.109a66.47 66.47 0 0 0 .609-9c0-36.45-29.549-66-66-66s-66 29.55-66 66c0 3.439.263 6.817.77 10.115A43.142 43.142 0 0 0 114 110c-23.748 0-43 19.252-43 43s19.252 43 43 43c.168 0 .335-.001.502-.003l-.002.003h151v-.003Z"
       fill="url(#b)"
       shape-rendering="crispEdges"
       id="path2" />
  </g>
  <g
     filter="url(#c)"
     id="g8">
    <path
       fill-rule="evenodd"
       clip-rule="evenodd"
       d="m343.563 151.351.361.002c17.163 0 31.076-13.913 31.076-31.076 0-17.162-13.913-31.075-31.076-31.075-.12 0-.241 0-.361.002v-.002h-8.028c.29-2.127.44-4.298.44-6.504C335.975 56.355 314.62 35 288.277 35c-26.342 0-47.697 21.355-47.697 47.698 0 2.485.19 4.926.556 7.31a31.16 31.16 0 0 0-7.06-.806c-17.163 0-31.076 13.913-31.076 31.075 0 17.163 13.913 31.076 31.076 31.076l.363-.002-.002.002h109.126v-.002Z"
       fill="url(#d)"
       shape-rendering="crispEdges"
       id="path6" />
  </g>
  <defs
     id="defs167">
    <linearGradient
       inkscape:collect="always"
       id="linearGradient10164">
      <stop
         style="stop-color:#138eff;stop-opacity:1;"
         offset="0"
         id="stop10160" />
      <stop
         style="stop-color:#00e0ff;stop-opacity:1;"
         offset="1"
         id="stop10162" />
    </linearGradient>
    <linearGradient
       inkscape:collect="always"
       id="linearGradient10156">
      <stop
         style="stop-color:#138eff;stop-opacity:1;"
         offset="0"
         id="stop10152" />
      <stop
         style="stop-color:#00e0ff;stop-opacity:1;"
         offset="1"
         id="stop10154" />
    </linearGradient>
    <linearGradient
       id="b"
       x1="190"
       y1="-16.5"
       x2="190"
       y2="218.5"
       gradientUnits="userSpaceOnUse">
      <stop
         stop-color="#fff"
         id="stop24" />
      <stop
         offset="1"
         stop-color="#fff"
         stop-opacity="0"
         id="stop26" />
    </linearGradient>
    <linearGradient
       id="d"
       x1="297"
       y1="38.5"
       x2="297"
       y2="164.5"
       gradientUnits="userSpaceOnUse">
      <stop
         stop-color="#fff"
         id="stop29" />
      <stop
         offset="1"
         stop-color="#fff"
         stop-opacity="0"
         id="stop31" />
    </linearGradient>
    <linearGradient
       id="f"
       x1="175.905"
       y1="154.585"
       x2="161.359"
       y2="202.404"
       gradientUnits="userSpaceOnUse">
      <stop
         stop-color="#138EFF"
         id="stop34" />
      <stop
         offset="1"
         stop-color="#00E0FF"
         id="stop36" />
    </linearGradient>
    <linearGradient
       id="g"
       x1="233.413"
       y1="154.585"
       x2="218.867"
       y2="202.404"
       gradientUnits="userSpaceOnUse">
      <stop
         stop-color="#138EFF"
         id="stop39" />
      <stop
         offset="1"
         stop-color="#00E0FF"
         id="stop41" />
    </linearGradient>
    <linearGradient
       id="h"
       x1="290.92"
       y1="154.585"
       x2="276.374"
       y2="202.404"
       gradientUnits="userSpaceOnUse">
      <stop
         stop-color="#138EFF"
         id="stop44" />
      <stop
         offset="1"
         stop-color="#00E0FF"
         id="stop46" />
    </linearGradient>
    <linearGradient
       id="j"
       x1="191.079"
       y1="200.105"
       x2="176.533"
       y2="247.925"
       gradientUnits="userSpaceOnUse">
      <stop
         stop-color="#138EFF"
         id="stop49" />
      <stop
         offset="1"
         stop-color="#00E0FF"
         id="stop51" />
    </linearGradient>
    <linearGradient
       id="k"
       x1="239.666"
       y1="200.105"
       x2="225.12"
       y2="247.925"
       gradientUnits="userSpaceOnUse">
      <stop
         stop-color="#138EFF"
         id="stop54" />
      <stop
         offset="1"
         stop-color="#00E0FF"
         id="stop56" />
    </linearGradient>
    <filter
       id="a"
       x="0"
       y="0"
       width="338"
       height="261"
       filterUnits="userSpaceOnUse"
       color-interpolation-filters="sRGB">
      <feFlood
         flood-opacity="0"
         result="BackgroundImageFix"
         id="feFlood59" />
      <feGaussianBlur
         in="BackgroundImage"
         stdDeviation="7"
         id="feGaussianBlur61" />
      <feComposite
         in2="SourceAlpha"
         operator="in"
         result="effect1_backgroundBlur_106_1418"
         id="feComposite63" />
      <feColorMatrix
         in="SourceAlpha"
         values="0 0 0 0 0 0 0 0 0 0 0 0 0 0 0 0 0 0 127 0"
         result="hardAlpha"
         id="feColorMatrix65" />
      <feOffset
         dx="-21"
         dy="15"
         id="feOffset67" />
      <feGaussianBlur
         stdDeviation="25"
         id="feGaussianBlur69" />
      <feComposite
         in2="hardAlpha"
         operator="out"
         id="feComposite71" />
      <feColorMatrix
         values="0 0 0 0 0.113725 0 0 0 0 0.14902 0 0 0 0 0.27451 0 0 0 0.25 0"
         id="feColorMatrix73" />
      <feBlend
         in2="effect1_backgroundBlur_106_1418"
         result="effect2_dropShadow_106_1418"
         id="feBlend75" />
      <feBlend
         in="SourceGraphic"
         in2="effect2_dropShadow_106_1418"
         result="shape"
         id="feBlend77" />
    </filter>
    <filter
       id="c"
       x="132"
       y="0"
       width="272"
       height="216.353"
       filterUnits="userSpaceOnUse"
       color-interpolation-filters="sRGB">
      <feFlood
         flood-opacity="0"
         result="BackgroundImageFix"
         id="feFlood80" />
      <feGaussianBlur
         in="BackgroundImage"
         stdDeviation="7"
         id="feGaussianBlur82" />
      <feComposite
         in2="SourceAlpha"
         operator="in"
         result="effect1_backgroundBlur_106_1418"
         id="feComposite84" />
      <feColorMatrix
         in="SourceAlpha"
         values="0 0 0 0 0 0 0 0 0 0 0 0 0 0 0 0 0 0 127 0"
         result="hardAlpha"
         id="feColorMatrix86" />
      <feOffset
         dx="-21"
         dy="15"
         id="feOffset88" />
      <feGaussianBlur
         stdDeviation="25"
         id="feGaussianBlur90" />
      <feComposite
         in2="hardAlpha"
         operator="out"
         id="feComposite92" />
      <feColorMatrix
         values="0 0 0 0 0.113438 0 0 0 0 0.148981 0 0 0 0 0.275 0 0 0 0.25 0"
         id="feColorMatrix94" />
      <feBlend
         in2="effect1_backgroundBlur_106_1418"
         result="effect2_dropShadow_106_1418"
         id="feBlend96" />
      <feBlend
         in="SourceGraphic"
         in2="effect2_dropShadow_106_1418"
         result="shape"
         id="feBlend98" />
    </filter>
    <filter
       id="e"
       x="81.002"
       y="118.031"
       width="253.399"
       height="149.955"
       filterUnits="userSpaceOnUse"
       color-interpolation-filters="sRGB">
      <feFlood
         flood-opacity="0"
         result="BackgroundImageFix"
         id="feFlood101" />
      <feGaussianBlur
         in="BackgroundImage"
         stdDeviation="7"
         id="feGaussianBlur103" />
      <feComposite
         in2="SourceAlpha"
         operator="in"
         result="effect1_backgroundBlur_106_1418"
         id="feComposite105" />
      <feColorMatrix
         in="SourceAlpha"
         values="0 0 0 0 0 0 0 0 0 0 0 0 0 0 0 0 0 0 127 0"
         result="hardAlpha"
         id="feColorMatrix107" />
      <feOffset
         dx="-21"
         dy="15"
         id="feOffset109" />
      <feGaussianBlur
         stdDeviation="25"
         id="feGaussianBlur111" />
      <feComposite
         in2="hardAlpha"
         operator="out"
         id="feComposite113" />
      <feColorMatrix
         values="0 0 0 0 0.113438 0 0 0 0 0.148981 0 0 0 0 0.275 0 0 0 0.25 0"
         id="feColorMatrix115" />
      <feBlend
         in2="effect1_backgroundBlur_106_1418"
         result="effect2_dropShadow_106_1418"
         id="feBlend117" />
      <feColorMatrix
         in="SourceAlpha"
         values="0 0 0 0 0 0 0 0 0 0 0 0 0 0 0 0 0 0 127 0"
         result="hardAlpha"
         id="feColorMatrix119" />
      <feOffset
         dy="-7"
         id="feOffset121" />
      <feGaussianBlur
         stdDeviation="20.5"
         id="feGaussianBlur123" />
      <feComposite
         in2="hardAlpha"
         operator="out"
         id="feComposite125" />
      <feColorMatrix
         values="0 0 0 0 0.1375 0 0 0 0 0.74125 0 0 0 0 1 0 0 0 0.3 0"
         id="feColorMatrix127" />
      <feBlend
         in2="effect2_dropShadow_106_1418"
         result="effect3_dropShadow_106_1418"
         id="feBlend129" />
      <feBlend
         in="SourceGraphic"
         in2="effect3_dropShadow_106_1418"
         result="shape"
         id="feBlend131" />
    </filter>
    <filter
       id="i"
       x="96.175"
       y="163.551"
       width="186.972"
       height="149.955"
       filterUnits="userSpaceOnUse"
       color-interpolation-filters="sRGB">
      <feFlood
         flood-opacity="0"
         result="BackgroundImageFix"
         id="feFlood134" />
      <feGaussianBlur
         in="BackgroundImage"
         stdDeviation="7"
         id="feGaussianBlur136" />
      <feComposite
         in2="SourceAlpha"
         operator="in"
         result="effect1_backgroundBlur_106_1418"
         id="feComposite138" />
      <feColorMatrix
         in="SourceAlpha"
         values="0 0 0 0 0 0 0 0 0 0 0 0 0 0 0 0 0 0 127 0"
         result="hardAlpha"
         id="feColorMatrix140" />
      <feOffset
         dx="-21"
         dy="15"
         id="feOffset142" />
      <feGaussianBlur
         stdDeviation="25"
         id="feGaussianBlur144" />
      <feComposite
         in2="hardAlpha"
         operator="out"
         id="feComposite146" />
      <feColorMatrix
         values="0 0 0 0 0.113438 0 0 0 0 0.148981 0 0 0 0 0.275 0 0 0 0.25 0"
         id="feColorMatrix148" />
      <feBlend
         in2="effect1_backgroundBlur_106_1418"
         result="effect2_dropShadow_106_1418"
         id="feBlend150" />
      <feColorMatrix
         in="SourceAlpha"
         values="0 0 0 0 0 0 0 0 0 0 0 0 0 0 0 0 0 0 127 0"
         result="hardAlpha"
         id="feColorMatrix152" />
      <feOffset
         dy="-7"
         id="feOffset154" />
      <feGaussianBlur
         stdDeviation="20.5"
         id="feGaussianBlur156" />
      <feComposite
         in2="hardAlpha"
         operator="out"
         id="feComposite158" />
      <feColorMatrix
         values="0 0 0 0 0.1375 0 0 0 0 0.74125 0 0 0 0 1 0 0 0 0.3 0"
         id="feColorMatrix160" />
      <feBlend
         in2="effect2_dropShadow_106_1418"
         result="effect3_dropShadow_106_1418"
         id="feBlend162" />
      <feBlend
         in="SourceGraphic"
         in2="effect3_dropShadow_106_1418"
         result="shape"
         id="feBlend164" />
    </filter>
    <linearGradient
       inkscape:collect="always"
       xlink:href="#linearGradient10156"
       id="linearGradient10158"
       x1="31.527028"
       y1="196.81351"
       x2="376.47297"
       y2="196.81351"
       gradientUnits="userSpaceOnUse"
       gradientTransform="matrix(0.59650506,0,0,0.59650506,72.638816,109.1327)" />
    <linearGradient
       inkscape:collect="always"
       xlink:href="#linearGradient10164"
       id="linearGradient10166"
       x1="31.527028"
       y1="258.01351"
       x2="376.47297"
       y2="258.01351"
       gradientUnits="userSpaceOnUse"
       gradientTransform="matrix(0.59650506,0,0,0.59650506,72.638816,109.1327)" />
  </defs>
  <path
     d="m 287.44029,215.75798 c -5.60715,4.59309 -15.56878,10.97569 -20.34082,10.97569 -2.44568,0 -5.4282,-2.38602 -8.58968,-4.95099 -4.29483,-3.40008 -9.12652,-7.33701 -15.50913,-7.33701 -6.62121,0 -11.5722,3.93693 -15.98633,7.45631 -3.16148,2.44567 -6.14401,4.83169 -8.58968,4.83169 -2.44567,0 -5.30889,-2.32637 -8.29142,-4.77204 -4.29483,-3.51938 -9.12653,-7.51596 -15.80738,-7.51596 -6.68086,0 -11.51255,3.99658 -15.80739,7.51596 -3.04217,2.44567 -5.9054,4.77204 -8.29142,4.77204 -2.50532,0 -5.42819,-2.32637 -8.58967,-4.83169 -4.35449,-3.51938 -9.36513,-7.45631 -15.98633,-7.45631 -6.38261,0 -11.2143,3.87728 -15.50914,7.33701 -3.10182,2.56497 -6.08435,4.95099 -8.58967,4.95099 -4.83169,0 -14.79332,-6.44226 -20.34082,-10.97569 -2.564973,-2.08777 -6.322955,-1.72987 -8.410723,0.8351 -2.087767,2.56498 -1.729864,6.32296 0.835107,8.41072 2.743924,2.26672 17.179346,13.65997 27.856786,13.65997 6.68086,0 11.6915,-3.99658 16.10564,-7.57561 2.86322,-2.32637 5.84575,-4.71239 7.99317,-4.71239 2.50532,0 5.42819,2.32637 8.58967,4.83169 4.35449,3.51938 9.36513,7.45631 15.98633,7.45631 6.68086,0 11.51255,-3.99658 15.80739,-7.51596 3.04217,-2.44567 5.9054,-4.77204 8.29142,-4.77204 2.44567,0 5.30889,2.32637 8.29142,4.77204 4.29483,3.51938 9.12653,7.51596 15.80738,7.51596 6.62121,0 11.5722,-3.93693 15.98634,-7.45631 3.16147,-2.44567 6.144,-4.83169 8.58967,-4.83169 2.14742,0 5.12994,2.38602 7.99317,4.71239 4.41414,3.51938 9.36513,7.57561 16.10563,7.57561 10.67745,0 25.05322,-11.3336 27.97609,-13.65997 2.56497,-2.08776 2.92288,-5.84574 0.83511,-8.41072 -2.08777,-2.56497 -5.84575,-2.92287 -8.41072,-0.8351 z"
     id="path5466"
     style="fill:url(#linearGradient10158);fill-opacity:1;stroke-width:0.596505" />
  <path
     d="m 287.44029,252.26409 c -5.60715,4.59308 -15.56878,10.97569 -20.34082,10.97569 -2.44568,0 -5.4282,-2.38602 -8.58968,-4.95099 -4.29483,-3.40008 -9.12652,-7.33702 -15.50913,-7.33702 -6.62121,0 -11.5722,3.93694 -15.98633,7.45632 -3.16148,2.44567 -6.14401,4.83169 -8.58968,4.83169 -2.44567,0 -5.30889,-2.32637 -8.29142,-4.77204 -4.29483,-3.51938 -9.12653,-7.51597 -15.80738,-7.51597 -6.68086,0 -11.51255,3.99659 -15.80739,7.51597 -3.04217,2.44567 -5.9054,4.77204 -8.29142,4.77204 -2.50532,0 -5.42819,-2.32637 -8.58967,-4.83169 -4.35449,-3.51938 -9.36513,-7.45632 -15.98633,-7.45632 -6.38261,0 -11.2143,3.87729 -15.50914,7.33702 -3.10182,2.56497 -6.08435,4.95099 -8.58967,4.95099 -4.83169,0 -14.79332,-6.44226 -20.34082,-10.97569 -2.564973,-2.08777 -6.322955,-1.72987 -8.410723,0.8351 -2.087767,2.56497 -1.729864,6.32296 0.835107,8.41072 2.743924,2.26672 17.179346,13.65997 27.856786,13.65997 6.68086,0 11.6915,-3.99658 16.10564,-7.57561 2.86322,-2.32637 5.84575,-4.71239 7.99317,-4.71239 2.50532,0 5.42819,2.32637 8.58967,4.83169 4.35449,3.51938 9.36513,7.45631 15.98633,7.45631 6.68086,0 11.51255,-3.99658 15.80739,-7.51596 3.04217,-2.44567 5.9054,-4.77204 8.29142,-4.77204 2.44567,0 5.30889,2.32637 8.29142,4.77204 4.29483,3.51938 9.12653,7.51596 15.80738,7.51596 6.62121,0 11.5722,-3.93693 15.98634,-7.45631 3.16147,-2.44567 6.144,-4.83169 8.58967,-4.83169 2.14742,0 5.12994,2.38602 7.99317,4.71239 4.41414,3.51938 9.36513,7.57561 16.10563,7.57561 v 0 c 10.67745,0 25.05322,-11.39325 27.97609,-13.65997 2.56497,-2.08776 2.92288,-5.84575 0.83511,-8.41072 -2.08777,-2.56497 -5.84575,-2.92287 -8.41072,-0.8351 z"
     id="path5463"
     style="fill:url(#linearGradient10166);fill-opacity:1;stroke-width:0.596505" />
</svg>
